# MagicaVoxel @ Ephtracy

# group
o 

# material
mtllib OneHandSword.mtl
usemtl palette

# normals
vn -1 0 0
vn 1 0 0
vn 0 0 1
vn 0 0 -1
vn 0 -1 0
vn 0 1 0

# texcoords
vt 0.841797 0.5
vt 0.876953 0.5
vt 0.958984 0.5
vt 0.962891 0.5

# verts
v 0 1.3 -0.1
v 0 1.3 -0.2
v 0 1.4 -0.1
v 0 1.4 -0.2
v 0.1 1.4 -0.1
v 0.1 1.4 -0.2
v 0.1 1.7 -0.1
v 0.1 1.7 -0.2
v 0.1 2 -0.1
v 0.1 2 -0.2
v 0.1 2.5 -0.1
v 0.1 2.5 -0.2
v 0.1 2.7 -0.1
v 0.1 2.7 -0.2
v 0.2 0.9 -0.1
v 0.2 0.9 -0.2
v 0.2 1 -0.1
v 0.2 1 -0.2
v 0.2 1.3 0
v 0.2 1.3 -0.1
v 0.2 1.3 -0.2
v 0.2 1.3 -0.3
v 0.2 1.4 -0.1
v 0.2 1.4 -0.2
v 0.2 1.5 0
v 0.2 1.5 -0.1
v 0.2 1.5 -0.2
v 0.2 1.5 -0.3
v 0.2 1.7 -0.1
v 0.2 1.7 -0.2
v 0.2 2 -0.1
v 0.2 2 -0.2
v 0.4 1.2 -0.1
v 0.4 1.2 -0.2
v 0.4 1.3 -0.1
v 0.4 1.3 -0.2
v 0.2 2.6 -0.1
v 0.2 2.6 -0.2
v 0.2 2.7 -0.1
v 0.2 2.7 -0.2
v 0.3 1 -0.1
v 0.3 1 -0.2
v 0.3 1.3 0
v 0.3 1.3 -0.1
v 0.3 1.3 -0.2
v 0.3 1.3 -0.3
v 0.3 1.4 -0.1
v 0.3 1.4 -0.2
v 0.3 1.5 0
v 0.3 1.5 -0.1
v 0.3 1.5 -0.2
v 0.3 1.5 -0.3
v 0.3 2.5 -0.1
v 0.3 2.5 -0.2
v 0.3 2.6 -0.1
v 0.3 2.6 -0.2
v 0.4 0.9 -0.1
v 0.4 0.9 -0.2
v 0.4 1 -0.1
v 0.4 1 -0.2
v 0.4 1.5 -0.1
v 0.4 1.5 -0.2
v 0.4 2.5 -0.1
v 0.4 2.5 -0.2
v 0.5 1.2 -0.1
v 0.5 1.2 -0.2
v 0.5 1.5 -0.1
v 0.5 1.5 -0.2
v 0.2 1.3 0
v 0.2 1.5 0
v 0.3 1.3 0
v 0.3 1.5 0
v 0 1.3 -0.1
v 0 1.4 -0.1
v 0.1 1.4 -0.1
v 0.1 1.7 -0.1
v 0.1 2 -0.1
v 0.1 2.5 -0.1
v 0.1 2.7 -0.1
v 0.2 0.9 -0.1
v 0.2 1 -0.1
v 0.2 1.3 -0.1
v 0.2 1.4 -0.1
v 0.2 1.5 -0.1
v 0.2 1.7 -0.1
v 0.2 2 -0.1
v 0.2 2.4 -0.1
v 0.2 2.5 -0.1
v 0.2 2.6 -0.1
v 0.2 2.7 -0.1
v 0.3 1 -0.1
v 0.3 1.3 -0.1
v 0.3 1.4 -0.1
v 0.3 1.5 -0.1
v 0.3 2.4 -0.1
v 0.3 2.5 -0.1
v 0.3 2.6 -0.1
v 0.4 0.9 -0.1
v 0.4 1 -0.1
v 0.4 1.2 -0.1
v 0.4 1.3 -0.1
v 0.4 1.4 -0.1
v 0.4 1.5 -0.1
v 0.4 2.5 -0.1
v 0.5 1.2 -0.1
v 0.5 1.5 -0.1
v 0 1.3 -0.2
v 0 1.4 -0.2
v 0.1 1.4 -0.2
v 0.1 1.7 -0.2
v 0.1 2 -0.2
v 0.1 2.5 -0.2
v 0.1 2.7 -0.2
v 0.2 0.9 -0.2
v 0.2 1 -0.2
v 0.2 1.3 -0.2
v 0.2 1.4 -0.2
v 0.2 1.5 -0.2
v 0.2 1.7 -0.2
v 0.2 2 -0.2
v 0.2 2.4 -0.2
v 0.2 2.5 -0.2
v 0.2 2.6 -0.2
v 0.2 2.7 -0.2
v 0.3 1 -0.2
v 0.3 1.3 -0.2
v 0.3 1.4 -0.2
v 0.3 1.5 -0.2
v 0.3 2.4 -0.2
v 0.3 2.5 -0.2
v 0.3 2.6 -0.2
v 0.4 0.9 -0.2
v 0.4 1 -0.2
v 0.4 1.2 -0.2
v 0.4 1.3 -0.2
v 0.4 1.4 -0.2
v 0.4 1.5 -0.2
v 0.4 2.5 -0.2
v 0.5 1.2 -0.2
v 0.5 1.5 -0.2
v 0.2 1.3 -0.3
v 0.2 1.5 -0.3
v 0.3 1.3 -0.3
v 0.3 1.5 -0.3
v 0.2 0.9 -0.1
v 0.4 0.9 -0.1
v 0.2 0.9 -0.2
v 0.4 0.9 -0.2
v 0.4 1.2 -0.1
v 0.5 1.2 -0.1
v 0.4 1.2 -0.2
v 0.5 1.2 -0.2
v 0.2 1.3 0
v 0.3 1.3 0
v 0 1.3 -0.1
v 0.2 1.3 -0.1
v 0.3 1.3 -0.1
v 0.4 1.3 -0.1
v 0 1.3 -0.2
v 0.2 1.3 -0.2
v 0.3 1.3 -0.2
v 0.4 1.3 -0.2
v 0.2 1.3 -0.3
v 0.3 1.3 -0.3
v 0.1 2 -0.1
v 0.2 2 -0.1
v 0.1 2 -0.2
v 0.2 2 -0.2
v 0.3 1 -0.1
v 0.4 1 -0.1
v 0.3 1 -0.2
v 0.4 1 -0.2
v 0 1.4 -0.1
v 0.1 1.4 -0.1
v 0 1.4 -0.2
v 0.1 1.4 -0.2
v 0.2 1.5 0
v 0.3 1.5 0
v 0.2 1.5 -0.1
v 0.3 1.5 -0.1
v 0.4 1.5 -0.1
v 0.5 1.5 -0.1
v 0.2 1.5 -0.2
v 0.3 1.5 -0.2
v 0.4 1.5 -0.2
v 0.5 1.5 -0.2
v 0.2 1.5 -0.3
v 0.3 1.5 -0.3
v 0.1 1.7 -0.1
v 0.2 1.7 -0.1
v 0.1 1.7 -0.2
v 0.2 1.7 -0.2
v 0.3 2.5 -0.1
v 0.4 2.5 -0.1
v 0.3 2.5 -0.2
v 0.4 2.5 -0.2
v 0.2 2.6 -0.1
v 0.3 2.6 -0.1
v 0.2 2.6 -0.2
v 0.3 2.6 -0.2
v 0.1 2.7 -0.1
v 0.2 2.7 -0.1
v 0.1 2.7 -0.2
v 0.2 2.7 -0.2

# faces
f 3/2/1 2/2/1 1/2/1
f 4/2/1 2/2/1 3/2/1
f 7/3/1 6/3/1 5/3/1
f 8/3/1 6/3/1 7/3/1
f 11/3/1 10/3/1 9/3/1
f 12/3/1 10/3/1 11/3/1
f 13/4/1 12/4/1 11/4/1
f 14/4/1 12/4/1 13/4/1
f 17/2/1 16/2/1 15/2/1
f 18/2/1 16/2/1 17/2/1
f 20/1/1 18/1/1 17/1/1
f 21/1/1 18/1/1 20/1/1
f 23/2/1 20/2/1 19/2/1
f 24/2/1 22/2/1 21/2/1
f 25/2/1 23/2/1 19/2/1
f 26/2/1 23/2/1 25/2/1
f 27/2/1 22/2/1 24/2/1
f 28/2/1 22/2/1 27/2/1
f 31/3/1 30/3/1 29/3/1
f 32/3/1 30/3/1 31/3/1
f 35/2/1 34/2/1 33/2/1
f 36/2/1 34/2/1 35/2/1
f 37/4/2 38/4/2 39/4/2
f 39/4/2 38/4/2 40/4/2
f 41/1/2 42/1/2 44/1/2
f 44/1/2 42/1/2 45/1/2
f 43/2/2 44/2/2 47/2/2
f 45/2/2 46/2/2 48/2/2
f 43/2/2 47/2/2 49/2/2
f 49/2/2 47/2/2 50/2/2
f 48/2/2 46/2/2 51/2/2
f 51/2/2 46/2/2 52/2/2
f 53/4/2 54/4/2 55/4/2
f 55/4/2 54/4/2 56/4/2
f 57/2/2 58/2/2 59/2/2
f 59/2/2 58/2/2 60/2/2
f 61/4/2 62/4/2 63/4/2
f 63/4/2 62/4/2 64/4/2
f 65/2/2 66/2/2 67/2/2
f 67/2/2 66/2/2 68/2/2
f 71/2/3 70/2/3 69/2/3
f 72/2/3 70/2/3 71/2/3
f 75/2/3 74/2/3 73/2/3
f 82/2/3 75/2/3 73/2/3
f 83/3/3 76/3/3 75/3/3
f 83/2/3 75/2/3 82/2/3
f 84/3/3 76/3/3 83/3/3
f 85/3/3 76/3/3 84/3/3
f 86/3/3 78/3/3 77/3/3
f 87/3/3 78/3/3 86/3/3
f 88/4/3 79/4/3 78/4/3
f 88/3/3 78/3/3 87/3/3
f 89/4/3 79/4/3 88/4/3
f 90/4/3 79/4/3 89/4/3
f 91/2/3 81/2/3 80/2/3
f 91/1/3 82/1/3 81/1/3
f 92/1/3 82/1/3 91/1/3
f 94/3/3 85/3/3 84/3/3
f 94/3/3 87/3/3 86/3/3
f 94/3/3 86/3/3 85/3/3
f 95/4/3 89/4/3 88/4/3
f 95/4/3 88/4/3 87/4/3
f 95/3/3 87/3/3 94/3/3
f 96/4/3 89/4/3 95/4/3
f 97/4/3 89/4/3 96/4/3
f 98/2/3 91/2/3 80/2/3
f 99/2/3 91/2/3 98/2/3
f 101/2/3 93/2/3 92/2/3
f 102/4/3 94/4/3 93/4/3
f 102/4/3 96/4/3 95/4/3
f 102/2/3 93/2/3 101/2/3
f 102/4/3 95/4/3 94/4/3
f 103/4/3 96/4/3 102/4/3
f 104/4/3 96/4/3 103/4/3
f 105/2/3 101/2/3 100/2/3
f 105/2/3 103/2/3 102/2/3
f 105/2/3 102/2/3 101/2/3
f 106/2/3 103/2/3 105/2/3
f 107/2/4 108/2/4 109/2/4
f 107/2/4 109/2/4 116/2/4
f 109/3/4 110/3/4 117/3/4
f 116/2/4 109/2/4 117/2/4
f 117/3/4 110/3/4 118/3/4
f 118/3/4 110/3/4 119/3/4
f 111/3/4 112/3/4 120/3/4
f 120/3/4 112/3/4 121/3/4
f 112/4/4 113/4/4 122/4/4
f 121/3/4 112/3/4 122/3/4
f 122/4/4 113/4/4 123/4/4
f 123/4/4 113/4/4 124/4/4
f 114/2/4 115/2/4 125/2/4
f 115/1/4 116/1/4 125/1/4
f 125/1/4 116/1/4 126/1/4
f 118/3/4 119/3/4 128/3/4
f 120/3/4 121/3/4 128/3/4
f 119/3/4 120/3/4 128/3/4
f 122/4/4 123/4/4 129/4/4
f 121/4/4 122/4/4 129/4/4
f 128/3/4 121/3/4 129/3/4
f 129/4/4 123/4/4 130/4/4
f 130/4/4 123/4/4 131/4/4
f 114/2/4 125/2/4 132/2/4
f 132/2/4 125/2/4 133/2/4
f 126/2/4 127/2/4 135/2/4
f 127/4/4 128/4/4 136/4/4
f 129/4/4 130/4/4 136/4/4
f 135/2/4 127/2/4 136/2/4
f 128/4/4 129/4/4 136/4/4
f 136/4/4 130/4/4 137/4/4
f 137/4/4 130/4/4 138/4/4
f 134/2/4 135/2/4 139/2/4
f 136/2/4 137/2/4 139/2/4
f 135/2/4 136/2/4 139/2/4
f 139/2/4 137/2/4 140/2/4
f 141/2/4 142/2/4 143/2/4
f 143/2/4 142/2/4 144/2/4
f 147/2/5 146/2/5 145/2/5
f 148/2/5 146/2/5 147/2/5
f 151/2/5 150/2/5 149/2/5
f 152/2/5 150/2/5 151/2/5
f 156/2/5 154/2/5 153/2/5
f 157/2/5 154/2/5 156/2/5
f 159/2/5 156/2/5 155/2/5
f 160/2/5 156/2/5 159/2/5
f 161/2/5 158/2/5 157/2/5
f 162/2/5 158/2/5 161/2/5
f 163/2/5 161/2/5 160/2/5
f 164/2/5 161/2/5 163/2/5
f 167/3/5 166/3/5 165/3/5
f 168/3/5 166/3/5 167/3/5
f 169/2/6 170/2/6 171/2/6
f 171/2/6 170/2/6 172/2/6
f 173/2/6 174/2/6 175/2/6
f 175/2/6 174/2/6 176/2/6
f 177/2/6 178/2/6 179/2/6
f 179/2/6 178/2/6 180/2/6
f 181/2/6 182/2/6 185/2/6
f 185/2/6 182/2/6 186/2/6
f 183/2/6 184/2/6 187/2/6
f 187/2/6 184/2/6 188/2/6
f 189/3/6 190/3/6 191/3/6
f 191/3/6 190/3/6 192/3/6
f 193/4/6 194/4/6 195/4/6
f 195/4/6 194/4/6 196/4/6
f 197/4/6 198/4/6 199/4/6
f 199/4/6 198/4/6 200/4/6
f 201/4/6 202/4/6 203/4/6
f 203/4/6 202/4/6 204/4/6
