# MagicaVoxel @ Ephtracy

# group
o 

# material
mtllib RightArm.mtl
usemtl palette

# normals
vn -1 0 0
vn 1 0 0
vn 0 0 1
vn 0 0 -1
vn 0 -1 0
vn 0 1 0

# texcoords
vt 0.0175781 0.5
vt 0.841797 0.5
vt 0.994141 0.5

# verts
v -0.3 0.1 0.1
v -0.3 0.1 0
v -0.3 0.1 -0.1
v -0.3 0.1 -0.3
v -0.3 0.2 0.1
v -0.3 0.2 0
v -0.3 0.2 -0.1
v -0.3 0.2 -0.2
v -0.3 0.2 -0.3
v -0.3 0.3 0
v -0.3 0.3 -0.2
v -0.2 0.2 0.1
v -0.2 0.2 0
v -0.2 0.2 -0.2
v -0.2 0.2 -0.3
v -0.2 0.3 0.1
v -0.2 0.3 0
v -0.2 0.3 -0.2
v -0.2 0.3 -0.3
v -0.2 0.4 0
v -0.2 0.4 -0.2
v -0.2 0.5 0.1
v -0.2 0.5 -0.3
v -0.1 0.2 0.2
v -0.1 0.2 0.1
v -0.1 0.3 0.2
v -0.1 0.3 0.1
v 0 0.2 -0.3
v 0 0.2 -0.4
v 0 0.3 0.2
v 0 0.3 0.1
v 0 0.3 -0.2
v 0 0.3 -0.3
v 0 0.3 -0.4
v 0 0.4 0.2
v 0 0.4 0.1
v 0 0.4 -0.2
v 0 0.4 -0.3
v 0 0.5 0.1
v 0 0.5 -0.2
v 0 0.6 0.2
v 0 0.6 -0.3
v 0.1 0.1 0.2
v 0.1 0.1 0.1
v 0.1 0.1 -0.3
v 0.1 0.1 -0.4
v 0.1 0.2 0.2
v 0.1 0.2 0.1
v 0.1 0.2 -0.3
v 0.1 0.2 -0.4
v 0.2 0 0.2
v 0.2 0 0.1
v 0.2 0 -0.3
v 0.2 0 -0.4
v 0.2 0.1 0.2
v 0.2 0.1 0.1
v 0.2 0.1 -0.3
v 0.2 0.1 -0.4
v 0.2 0.2 0.3
v 0.2 0.2 0.2
v 0.2 0.3 0.2
v 0.2 0.3 -0.3
v 0.2 0.3 -0.4
v 0.2 0.4 0.3
v 0.2 0.4 0.2
v 0.2 0.4 -0.3
v 0.2 0.4 -0.4
v 0.2 0.5 0.2
v 0.2 0.5 -0.3
v 0.2 0.6 0.3
v 0.2 0.6 -0.4
v -0.2 0.1 0.1
v -0.2 0.1 0
v -0.2 0.1 -0.1
v -0.2 0.1 -0.3
v -0.2 0.2 0.1
v -0.2 0.2 0
v -0.2 0.2 -0.1
v -0.2 0.2 -0.3
v -0.1 0.2 0
v -0.1 0.2 -0.2
v -0.1 0.3 0.1
v -0.1 0.3 0
v -0.1 0.3 -0.2
v -0.1 0.3 -0.3
v -0.1 0.4 0
v -0.1 0.4 -0.2
v -0.1 0.5 0.1
v -0.1 0.5 -0.3
v 0 0.2 0.1
v 0 0.2 0
v 0 0.3 0.1
v 0 0.3 0
v 0.1 0.3 0.2
v 0.1 0.3 0.1
v 0.1 0.3 -0.2
v 0.1 0.3 -0.3
v 0.1 0.4 0.2
v 0.1 0.4 0.1
v 0.1 0.4 -0.2
v 0.1 0.4 -0.3
v 0.1 0.5 0.1
v 0.1 0.5 -0.2
v 0.1 0.6 0.2
v 0.1 0.6 -0.3
v 0.2 0.2 -0.2
v 0.2 0.2 -0.3
v 0.2 0.3 -0.2
v 0.2 0.3 -0.3
v 0.3 0 0.2
v 0.3 0 0.1
v 0.3 0 -0.3
v 0.3 0 -0.4
v 0.3 0.2 0.3
v 0.3 0.2 0.2
v 0.3 0.3 0.2
v 0.3 0.3 0.1
v 0.3 0.4 0.3
v 0.3 0.4 0.2
v 0.3 0.4 -0.3
v 0.3 0.4 -0.4
v 0.3 0.5 0.2
v 0.3 0.5 -0.3
v 0.3 0.6 0.3
v 0.3 0.6 -0.4
v 0.2 0.2 0.3
v 0.2 0.4 0.3
v 0.2 0.6 0.3
v 0.3 0.2 0.3
v 0.3 0.4 0.3
v 0.3 0.6 0.3
v -0.1 0.2 0.2
v -0.1 0.3 0.2
v 0 0.3 0.2
v 0 0.4 0.2
v 0 0.6 0.2
v 0.1 0.1 0.2
v 0.1 0.2 0.2
v 0.1 0.3 0.2
v 0.1 0.4 0.2
v 0.1 0.6 0.2
v 0.2 0 0.2
v 0.2 0.1 0.2
v 0.2 0.2 0.2
v 0.2 0.3 0.2
v 0.3 0 0.2
v 0.3 0.2 0.2
v -0.3 0.1 0.1
v -0.3 0.2 0.1
v -0.2 0.1 0.1
v -0.2 0.2 0.1
v -0.2 0.3 0.1
v -0.2 0.5 0.1
v -0.1 0.2 0.1
v -0.1 0.3 0.1
v -0.1 0.5 0.1
v -0.3 0.2 0
v -0.3 0.3 0
v -0.2 0.2 0
v -0.2 0.3 0
v -0.3 0.1 -0.1
v -0.3 0.2 -0.1
v -0.2 0.1 -0.1
v -0.2 0.2 -0.1
v -0.2 0.3 -0.2
v -0.2 0.4 -0.2
v -0.1 0.2 -0.2
v -0.1 0.3 -0.2
v -0.1 0.4 -0.2
v 0 0.3 -0.2
v 0 0.4 -0.2
v 0 0.5 -0.2
v 0.1 0.3 -0.2
v 0.1 0.4 -0.2
v 0.1 0.5 -0.2
v 0.2 0.2 -0.2
v 0.2 0.3 -0.2
v 0.1 0.1 -0.3
v 0.1 0.2 -0.3
v 0.2 0 -0.3
v 0.2 0.1 -0.3
v 0.2 0.2 -0.3
v 0.2 0.3 -0.3
v 0.2 0.4 -0.3
v 0.2 0.5 -0.3
v 0.3 0 -0.3
v 0.3 0.4 -0.3
v 0.3 0.5 -0.3
v 0.2 0.3 0.2
v 0.2 0.4 0.2
v 0.2 0.5 0.2
v 0.3 0.3 0.2
v 0.3 0.4 0.2
v 0.3 0.5 0.2
v 0 0.2 0.1
v 0 0.3 0.1
v 0 0.4 0.1
v 0 0.5 0.1
v 0.1 0.1 0.1
v 0.1 0.2 0.1
v 0.1 0.3 0.1
v 0.1 0.4 0.1
v 0.1 0.5 0.1
v 0.2 0 0.1
v 0.2 0.1 0.1
v 0.2 0.2 0.1
v 0.3 0 0.1
v 0.3 0.3 0.1
v -0.3 0.1 0
v -0.3 0.2 0
v -0.2 0.1 0
v -0.2 0.2 0
v -0.2 0.3 0
v -0.2 0.4 0
v -0.1 0.2 0
v -0.1 0.3 0
v -0.1 0.4 0
v 0 0.2 0
v 0 0.3 0
v -0.3 0.2 -0.2
v -0.3 0.3 -0.2
v -0.2 0.2 -0.2
v -0.2 0.3 -0.2
v -0.3 0.1 -0.3
v -0.3 0.2 -0.3
v -0.2 0.1 -0.3
v -0.2 0.2 -0.3
v -0.2 0.3 -0.3
v -0.2 0.5 -0.3
v -0.1 0.3 -0.3
v -0.1 0.5 -0.3
v 0 0.2 -0.3
v 0 0.3 -0.3
v 0 0.4 -0.3
v 0 0.6 -0.3
v 0.1 0.3 -0.3
v 0.1 0.4 -0.3
v 0.1 0.6 -0.3
v 0 0.2 -0.4
v 0 0.3 -0.4
v 0.1 0.1 -0.4
v 0.1 0.2 -0.4
v 0.1 0.3 -0.4
v 0.2 0 -0.4
v 0.2 0.1 -0.4
v 0.2 0.2 -0.4
v 0.2 0.3 -0.4
v 0.2 0.4 -0.4
v 0.2 0.6 -0.4
v 0.3 0 -0.4
v 0.3 0.4 -0.4
v 0.3 0.6 -0.4
v 0.2 0 0.2
v 0.3 0 0.2
v 0.2 0 0.1
v 0.3 0 0.1
v 0.2 0 -0.3
v 0.3 0 -0.3
v 0.2 0 -0.4
v 0.3 0 -0.4
v 0.1 0.1 0.2
v 0.2 0.1 0.2
v -0.3 0.1 0.1
v -0.2 0.1 0.1
v 0.1 0.1 0.1
v 0.2 0.1 0.1
v -0.3 0.1 0
v -0.2 0.1 0
v -0.3 0.1 -0.1
v -0.2 0.1 -0.1
v -0.3 0.1 -0.3
v -0.2 0.1 -0.3
v 0.1 0.1 -0.3
v 0.2 0.1 -0.3
v 0.1 0.1 -0.4
v 0.2 0.1 -0.4
v 0.2 0.2 0.3
v 0.3 0.2 0.3
v -0.1 0.2 0.2
v 0.1 0.2 0.2
v 0.2 0.2 0.2
v 0.3 0.2 0.2
v -0.2 0.2 0.1
v -0.1 0.2 0.1
v 0 0.2 0.1
v 0.1 0.2 0.1
v -0.3 0.2 0
v -0.2 0.2 0
v -0.1 0.2 0
v 0 0.2 0
v -0.3 0.2 -0.1
v -0.2 0.2 -0.1
v -0.1 0.2 -0.2
v 0.2 0.2 -0.2
v -0.2 0.2 -0.3
v 0 0.2 -0.3
v 0.1 0.2 -0.3
v 0.2 0.2 -0.3
v 0 0.2 -0.4
v 0.1 0.2 -0.4
v -0.2 0.4 0
v -0.1 0.4 0
v -0.2 0.4 -0.2
v -0.1 0.4 -0.2
v 0.2 0.5 0.2
v 0.3 0.5 0.2
v 0 0.5 0.1
v 0.1 0.5 0.1
v 0 0.5 -0.2
v 0.1 0.5 -0.2
v 0.2 0.5 -0.3
v 0.3 0.5 -0.3
v -0.3 0.2 0.1
v -0.2 0.2 0.1
v -0.3 0.2 0
v -0.2 0.2 0
v -0.3 0.2 -0.2
v -0.2 0.2 -0.2
v -0.3 0.2 -0.3
v -0.2 0.2 -0.3
v -0.1 0.3 0.2
v 0 0.3 0.2
v 0.1 0.3 0.2
v 0.2 0.3 0.2
v 0.3 0.3 0.2
v -0.1 0.3 0.1
v 0 0.3 0.1
v 0.1 0.3 0.1
v 0.3 0.3 0.1
v -0.3 0.3 0
v -0.2 0.3 0
v -0.1 0.3 0
v 0 0.3 0
v -0.3 0.3 -0.2
v -0.2 0.3 -0.2
v -0.1 0.3 -0.2
v 0 0.3 -0.2
v 0.1 0.3 -0.2
v 0.2 0.3 -0.2
v -0.1 0.3 -0.3
v 0 0.3 -0.3
v 0.1 0.3 -0.3
v 0.2 0.3 -0.3
v 0 0.3 -0.4
v 0.1 0.3 -0.4
v 0.2 0.3 -0.4
v -0.2 0.5 0.1
v -0.1 0.5 0.1
v -0.2 0.5 -0.3
v -0.1 0.5 -0.3
v 0.2 0.6 0.3
v 0.3 0.6 0.3
v 0 0.6 0.2
v 0.1 0.6 0.2
v 0 0.6 -0.3
v 0.1 0.6 -0.3
v 0.2 0.6 -0.4
v 0.3 0.6 -0.4

# faces
f 5/3/1 2/3/1 1/3/1
f 6/3/1 2/3/1 5/3/1
f 7/3/1 4/3/1 3/3/1
f 8/3/1 4/3/1 7/3/1
f 9/3/1 4/3/1 8/3/1
f 10/1/1 7/1/1 6/1/1
f 10/1/1 8/1/1 7/1/1
f 11/1/1 8/1/1 10/1/1
f 16/3/1 13/3/1 12/3/1
f 17/3/1 13/3/1 16/3/1
f 18/3/1 15/3/1 14/3/1
f 19/3/1 15/3/1 18/3/1
f 20/1/1 17/1/1 16/1/1
f 21/1/1 19/1/1 18/1/1
f 22/1/1 20/1/1 16/1/1
f 22/1/1 21/1/1 20/1/1
f 23/1/1 19/1/1 21/1/1
f 23/1/1 21/1/1 22/1/1
f 26/3/1 25/3/1 24/3/1
f 27/3/1 25/3/1 26/3/1
f 33/3/1 29/3/1 28/3/1
f 34/3/1 29/3/1 33/3/1
f 35/3/1 31/3/1 30/3/1
f 36/3/1 31/3/1 35/3/1
f 37/3/1 33/3/1 32/3/1
f 38/3/1 33/3/1 37/3/1
f 39/1/1 36/1/1 35/1/1
f 40/1/1 38/1/1 37/1/1
f 41/1/1 39/1/1 35/1/1
f 41/1/1 40/1/1 39/1/1
f 42/1/1 38/1/1 40/1/1
f 42/1/1 40/1/1 41/1/1
f 47/2/1 44/2/1 43/2/1
f 48/2/1 44/2/1 47/2/1
f 49/3/1 46/3/1 45/3/1
f 50/3/1 46/3/1 49/3/1
f 55/3/1 52/3/1 51/3/1
f 56/3/1 52/3/1 55/3/1
f 57/3/1 54/3/1 53/3/1
f 58/3/1 54/3/1 57/3/1
f 61/3/1 60/3/1 59/3/1
f 64/3/1 61/3/1 59/3/1
f 65/3/1 61/3/1 64/3/1
f 66/3/1 63/3/1 62/3/1
f 67/3/1 63/3/1 66/3/1
f 68/1/1 65/1/1 64/1/1
f 69/1/1 67/1/1 66/1/1
f 70/1/1 68/1/1 64/1/1
f 70/1/1 69/1/1 68/1/1
f 71/1/1 67/1/1 69/1/1
f 71/1/1 69/1/1 70/1/1
f 72/3/2 73/3/2 76/3/2
f 76/3/2 73/3/2 77/3/2
f 74/3/2 75/3/2 78/3/2
f 78/3/2 75/3/2 79/3/2
f 80/3/2 81/3/2 83/3/2
f 83/3/2 81/3/2 84/3/2
f 82/1/2 83/1/2 86/1/2
f 84/1/2 85/1/2 87/1/2
f 82/1/2 86/1/2 88/1/2
f 86/1/2 87/1/2 88/1/2
f 87/1/2 85/1/2 89/1/2
f 88/1/2 87/1/2 89/1/2
f 90/3/2 91/3/2 92/3/2
f 92/3/2 91/3/2 93/3/2
f 94/3/2 95/3/2 98/3/2
f 98/3/2 95/3/2 99/3/2
f 96/3/2 97/3/2 100/3/2
f 100/3/2 97/3/2 101/3/2
f 98/1/2 99/1/2 102/1/2
f 100/1/2 101/1/2 103/1/2
f 98/1/2 102/1/2 104/1/2
f 102/1/2 103/1/2 104/1/2
f 103/1/2 101/1/2 105/1/2
f 104/1/2 103/1/2 105/1/2
f 106/3/2 107/3/2 108/3/2
f 108/3/2 107/3/2 109/3/2
f 110/3/2 111/3/2 115/3/2
f 115/3/2 111/3/2 116/3/2
f 114/3/2 115/3/2 116/3/2
f 116/3/2 111/3/2 117/3/2
f 114/3/2 116/3/2 118/3/2
f 118/3/2 116/3/2 119/3/2
f 112/3/2 113/3/2 120/3/2
f 120/3/2 113/3/2 121/3/2
f 118/1/2 119/1/2 122/1/2
f 120/1/2 121/1/2 123/1/2
f 118/1/2 122/1/2 124/1/2
f 122/1/2 123/1/2 124/1/2
f 123/1/2 121/1/2 125/1/2
f 124/1/2 123/1/2 125/1/2
f 129/3/3 127/3/3 126/3/3
f 130/1/3 128/1/3 127/1/3
f 130/3/3 127/3/3 129/3/3
f 131/1/3 128/1/3 130/1/3
f 134/3/3 133/3/3 132/3/3
f 138/3/3 134/3/3 132/3/3
f 138/3/3 135/3/3 134/3/3
f 139/3/3 135/3/3 138/3/3
f 140/1/3 136/1/3 135/1/3
f 140/3/3 135/3/3 139/3/3
f 141/1/3 136/1/3 140/1/3
f 143/2/3 138/2/3 137/2/3
f 144/3/3 139/3/3 138/3/3
f 144/2/3 138/2/3 143/2/3
f 145/3/3 139/3/3 144/3/3
f 146/3/3 143/3/3 142/3/3
f 146/3/3 144/3/3 143/3/3
f 147/3/3 144/3/3 146/3/3
f 150/3/3 149/3/3 148/3/3
f 151/3/3 149/3/3 150/3/3
f 154/3/3 152/3/3 151/3/3
f 155/1/3 153/1/3 152/1/3
f 155/3/3 152/3/3 154/3/3
f 156/1/3 153/1/3 155/1/3
f 159/1/3 158/1/3 157/1/3
f 160/1/3 158/1/3 159/1/3
f 163/3/3 162/3/3 161/3/3
f 164/3/3 162/3/3 163/3/3
f 168/1/3 166/1/3 165/1/3
f 169/1/3 166/1/3 168/1/3
f 170/3/3 168/3/3 167/3/3
f 173/3/3 171/3/3 170/3/3
f 173/3/3 170/3/3 167/3/3
f 174/1/3 172/1/3 171/1/3
f 174/3/3 171/3/3 173/3/3
f 175/1/3 172/1/3 174/1/3
f 176/3/3 173/3/3 167/3/3
f 177/3/3 173/3/3 176/3/3
f 181/3/3 179/3/3 178/3/3
f 182/3/3 179/3/3 181/3/3
f 186/3/3 181/3/3 180/3/3
f 186/3/3 182/3/3 181/3/3
f 186/3/3 184/3/3 183/3/3
f 186/3/3 183/3/3 182/3/3
f 187/1/3 185/1/3 184/1/3
f 187/3/3 184/3/3 186/3/3
f 188/1/3 185/1/3 187/1/3
f 189/3/4 190/3/4 192/3/4
f 190/1/4 191/1/4 193/1/4
f 192/3/4 190/3/4 193/3/4
f 193/1/4 191/1/4 194/1/4
f 195/3/4 196/3/4 200/3/4
f 196/3/4 197/3/4 200/3/4
f 200/3/4 197/3/4 201/3/4
f 197/1/4 198/1/4 202/1/4
f 201/3/4 197/3/4 202/3/4
f 202/1/4 198/1/4 203/1/4
f 199/2/4 200/2/4 205/2/4
f 200/3/4 201/3/4 206/3/4
f 205/2/4 200/2/4 206/2/4
f 204/3/4 205/3/4 207/3/4
f 205/3/4 206/3/4 207/3/4
f 206/3/4 201/3/4 208/3/4
f 207/3/4 206/3/4 208/3/4
f 209/3/4 210/3/4 211/3/4
f 211/3/4 210/3/4 212/3/4
f 213/1/4 214/1/4 216/1/4
f 216/1/4 214/1/4 217/1/4
f 215/3/4 216/3/4 218/3/4
f 218/3/4 216/3/4 219/3/4
f 220/1/4 221/1/4 222/1/4
f 222/1/4 221/1/4 223/1/4
f 224/3/4 225/3/4 226/3/4
f 226/3/4 225/3/4 227/3/4
f 228/1/4 229/1/4 230/1/4
f 227/3/4 228/3/4 230/3/4
f 230/1/4 229/1/4 231/1/4
f 227/3/4 230/3/4 232/3/4
f 232/3/4 230/3/4 233/3/4
f 233/3/4 234/3/4 236/3/4
f 234/1/4 235/1/4 237/1/4
f 236/3/4 234/3/4 237/3/4
f 237/1/4 235/1/4 238/1/4
f 239/3/4 240/3/4 242/3/4
f 242/3/4 240/3/4 243/3/4
f 241/3/4 242/3/4 245/3/4
f 242/2/4 243/2/4 246/2/4
f 245/3/4 242/3/4 246/3/4
f 246/2/4 243/2/4 247/2/4
f 246/3/4 247/3/4 250/3/4
f 244/3/4 245/3/4 250/3/4
f 247/3/4 248/3/4 250/3/4
f 245/3/4 246/3/4 250/3/4
f 248/1/4 249/1/4 251/1/4
f 250/3/4 248/3/4 251/3/4
f 251/1/4 249/1/4 252/1/4
f 255/3/5 254/3/5 253/3/5
f 256/3/5 254/3/5 255/3/5
f 259/3/5 258/3/5 257/3/5
f 260/3/5 258/3/5 259/3/5
f 265/2/5 262/2/5 261/2/5
f 266/2/5 262/2/5 265/2/5
f 267/3/5 264/3/5 263/3/5
f 268/3/5 264/3/5 267/3/5
f 271/3/5 270/3/5 269/3/5
f 272/3/5 270/3/5 271/3/5
f 275/3/5 274/3/5 273/3/5
f 276/3/5 274/3/5 275/3/5
f 281/3/5 278/3/5 277/3/5
f 282/3/5 278/3/5 281/3/5
f 284/3/5 280/3/5 279/3/5
f 285/3/5 280/3/5 284/3/5
f 286/3/5 280/3/5 285/3/5
f 288/3/5 284/3/5 283/3/5
f 288/3/5 285/3/5 284/3/5
f 289/3/5 285/3/5 288/3/5
f 290/3/5 285/3/5 289/3/5
f 291/1/5 288/1/5 287/1/5
f 292/3/5 289/3/5 288/3/5
f 292/1/5 288/1/5 291/1/5
f 293/3/5 289/3/5 292/3/5
f 295/3/5 293/3/5 292/3/5
f 295/3/5 294/3/5 293/3/5
f 296/3/5 294/3/5 295/3/5
f 297/3/5 294/3/5 296/3/5
f 298/3/5 294/3/5 297/3/5
f 299/3/5 297/3/5 296/3/5
f 300/3/5 297/3/5 299/3/5
f 303/1/5 302/1/5 301/1/5
f 304/1/5 302/1/5 303/1/5
f 309/1/5 308/1/5 307/1/5
f 310/1/5 308/1/5 309/1/5
f 311/1/5 306/1/5 305/1/5
f 312/1/5 306/1/5 311/1/5
f 313/3/6 314/3/6 315/3/6
f 315/3/6 314/3/6 316/3/6
f 317/3/6 318/3/6 319/3/6
f 319/3/6 318/3/6 320/3/6
f 321/3/6 322/3/6 326/3/6
f 326/3/6 322/3/6 327/3/6
f 324/3/6 325/3/6 328/3/6
f 323/3/6 324/3/6 328/3/6
f 328/3/6 325/3/6 329/3/6
f 326/3/6 327/3/6 332/3/6
f 332/3/6 327/3/6 333/3/6
f 330/1/6 331/1/6 334/1/6
f 331/3/6 332/3/6 335/3/6
f 334/1/6 331/1/6 335/1/6
f 335/3/6 332/3/6 336/3/6
f 336/3/6 337/3/6 340/3/6
f 340/3/6 337/3/6 341/3/6
f 338/3/6 339/3/6 342/3/6
f 342/3/6 339/3/6 343/3/6
f 341/3/6 342/3/6 344/3/6
f 342/2/6 343/2/6 345/2/6
f 344/3/6 342/3/6 345/3/6
f 345/2/6 343/2/6 346/2/6
f 347/1/6 348/1/6 349/1/6
f 349/1/6 348/1/6 350/1/6
f 353/1/6 354/1/6 355/1/6
f 355/1/6 354/1/6 356/1/6
f 351/1/6 352/1/6 357/1/6
f 357/1/6 352/1/6 358/1/6
