# MagicaVoxel @ Ephtracy

# group
o 

# material
mtllib shoes.mtl
usemtl palette

# normals
vn -1 0 0
vn 1 0 0
vn 0 0 1
vn 0 0 -1
vn 0 -1 0
vn 0 1 0

# texcoords
vt 0.0175781 0.5
vt 0.841797 0.5
vt 0.994141 0.5

# verts
v -0.1 0 0.4
v -0.1 0 0.3
v -0.1 0.1 0.4
v -0.1 0.1 0.3
v -0.1 0.2 0.4
v -0.1 0.2 0.3
v -0.1 0.2 -0.1
v -0.1 0.2 -0.3
v -0.1 0.3 0.3
v -0.1 0.3 0
v -0.1 0.3 -0.2
v -0.1 0.3 -0.3
v -0.1 0.4 0.4
v -0.1 0.4 0
v -0.1 0.4 -0.1
v -0.1 0.4 -0.2
v -0.1 0.5 0
v -0.1 0.5 -0.1
v 0 0 -0.3
v 0 0 -0.4
v 0 0.2 -0.3
v 0 0.3 -0.2
v 0 0.3 -0.3
v 0 0.3 -0.4
v 0 0.4 -0.1
v 0 0.4 -0.2
v 0 0.4 -0.3
v 0 0.5 -0.1
v 0 0.5 -0.2
v 0.1 0.2 -0.1
v 0.1 0.2 -0.3
v 0.1 0.3 0.4
v 0.1 0.3 0.3
v 0.1 0.3 0
v 0.1 0.3 -0.2
v 0.1 0.3 -0.3
v 0.1 0.4 0.4
v 0.1 0.4 0
v 0.1 0.4 -0.1
v 0.1 0.4 -0.2
v 0.1 0.5 0
v 0.1 0.5 -0.1
v 0 0.2 -0.1
v 0 0.2 -0.3
v 0 0.3 0.4
v 0 0.3 0.3
v 0 0.3 0
v 0 0.3 -0.2
v 0 0.3 -0.3
v 0 0.4 0.4
v 0 0.4 0
v 0 0.4 -0.1
v 0 0.4 -0.2
v 0 0.5 0
v 0 0.5 -0.1
v 0.1 0 -0.3
v 0.1 0 -0.4
v 0.1 0.2 -0.3
v 0.1 0.3 -0.2
v 0.1 0.3 -0.3
v 0.1 0.3 -0.4
v 0.1 0.4 -0.1
v 0.1 0.4 -0.2
v 0.1 0.4 -0.3
v 0.1 0.5 -0.1
v 0.1 0.5 -0.2
v 0.2 0 0.4
v 0.2 0 0.3
v 0.2 0.1 0.4
v 0.2 0.1 0.3
v 0.2 0.2 0.4
v 0.2 0.2 0.3
v 0.2 0.2 -0.1
v 0.2 0.2 -0.3
v 0.2 0.3 0.3
v 0.2 0.3 0
v 0.2 0.3 -0.2
v 0.2 0.3 -0.3
v 0.2 0.4 0.4
v 0.2 0.4 0
v 0.2 0.4 -0.1
v 0.2 0.4 -0.2
v 0.2 0.5 0
v 0.2 0.5 -0.1
v -0.1 0 0.4
v -0.1 0.1 0.4
v -0.1 0.2 0.4
v -0.1 0.4 0.4
v 0 0.3 0.4
v 0 0.4 0.4
v 0.1 0.3 0.4
v 0.1 0.4 0.4
v 0.2 0 0.4
v 0.2 0.1 0.4
v 0.2 0.2 0.4
v 0.2 0.4 0.4
v -0.1 0.4 0
v -0.1 0.5 0
v 0 0.4 0
v 0 0.5 0
v 0.1 0.4 0
v 0.1 0.5 0
v 0.2 0.4 0
v 0.2 0.5 0
v -0.1 0.2 -0.1
v -0.1 0.4 -0.1
v 0 0.2 -0.1
v 0 0.4 -0.1
v 0 0.5 -0.1
v 0.1 0.2 -0.1
v 0.1 0.4 -0.1
v 0.1 0.5 -0.1
v 0.2 0.2 -0.1
v 0.2 0.4 -0.1
v 0 0.3 -0.2
v 0 0.4 -0.2
v 0.1 0.3 -0.2
v 0.1 0.4 -0.2
v 0 0 -0.3
v 0 0.2 -0.3
v 0 0.3 -0.3
v 0.1 0 -0.3
v 0.1 0.2 -0.3
v 0.1 0.3 -0.3
v -0.1 0 0.3
v -0.1 0.1 0.3
v -0.1 0.2 0.3
v -0.1 0.3 0.3
v 0 0.3 0.3
v 0.1 0.3 0.3
v 0.2 0 0.3
v 0.2 0.1 0.3
v 0.2 0.2 0.3
v 0.2 0.3 0.3
v -0.1 0.3 0
v -0.1 0.4 0
v 0 0.3 0
v 0 0.4 0
v 0.1 0.3 0
v 0.1 0.4 0
v 0.2 0.3 0
v 0.2 0.4 0
v -0.1 0.4 -0.1
v -0.1 0.5 -0.1
v 0 0.4 -0.1
v 0 0.5 -0.1
v 0.1 0.4 -0.1
v 0.1 0.5 -0.1
v 0.2 0.4 -0.1
v 0.2 0.5 -0.1
v -0.1 0.3 -0.2
v -0.1 0.4 -0.2
v 0 0.3 -0.2
v 0 0.4 -0.2
v 0 0.5 -0.2
v 0.1 0.3 -0.2
v 0.1 0.4 -0.2
v 0.1 0.5 -0.2
v 0.2 0.3 -0.2
v 0.2 0.4 -0.2
v -0.1 0.2 -0.3
v -0.1 0.3 -0.3
v 0 0.2 -0.3
v 0 0.3 -0.3
v 0 0.4 -0.3
v 0.1 0.2 -0.3
v 0.1 0.3 -0.3
v 0.1 0.4 -0.3
v 0.2 0.2 -0.3
v 0.2 0.3 -0.3
v 0 0 -0.4
v 0 0.3 -0.4
v 0.1 0 -0.4
v 0.1 0.3 -0.4
v -0.1 0 0.4
v 0.2 0 0.4
v -0.1 0 0.3
v 0.2 0 0.3
v 0 0 -0.3
v 0.1 0 -0.3
v 0 0 -0.4
v 0.1 0 -0.4
v -0.1 0.2 0.4
v 0.2 0.2 0.4
v -0.1 0.2 0.3
v 0.2 0.2 0.3
v -0.1 0.2 -0.1
v 0 0.2 -0.1
v 0.1 0.2 -0.1
v 0.2 0.2 -0.1
v -0.1 0.2 -0.3
v 0 0.2 -0.3
v 0.1 0.2 -0.3
v 0.2 0.2 -0.3
v -0.1 0.3 0.3
v 0 0.3 0.3
v 0.1 0.3 0.3
v 0.2 0.3 0.3
v -0.1 0.3 0
v 0 0.3 0
v 0.1 0.3 0
v 0.2 0.3 0
v 0 0.3 -0.2
v 0.1 0.3 -0.2
v 0 0.3 -0.3
v 0.1 0.3 -0.3
v -0.1 0.4 0
v 0 0.4 0
v 0.1 0.4 0
v 0.2 0.4 0
v -0.1 0.4 -0.1
v 0 0.4 -0.1
v 0.1 0.4 -0.1
v 0.2 0.4 -0.1
v 0 0.4 -0.2
v 0.1 0.4 -0.2
v -0.1 0.1 0.4
v 0.2 0.1 0.4
v -0.1 0.1 0.3
v 0.2 0.1 0.3
v 0 0.3 0.4
v 0.1 0.3 0.4
v 0 0.3 0.3
v 0.1 0.3 0.3
v -0.1 0.3 -0.2
v 0 0.3 -0.2
v 0.1 0.3 -0.2
v 0.2 0.3 -0.2
v -0.1 0.3 -0.3
v 0 0.3 -0.3
v 0.1 0.3 -0.3
v 0.2 0.3 -0.3
v 0 0.3 -0.4
v 0.1 0.3 -0.4
v -0.1 0.4 0.4
v 0 0.4 0.4
v 0.1 0.4 0.4
v 0.2 0.4 0.4
v -0.1 0.4 0
v 0 0.4 0
v 0.1 0.4 0
v 0.2 0.4 0
v -0.1 0.4 -0.1
v 0 0.4 -0.1
v 0.1 0.4 -0.1
v 0.2 0.4 -0.1
v -0.1 0.4 -0.2
v 0 0.4 -0.2
v 0.1 0.4 -0.2
v 0.2 0.4 -0.2
v 0 0.4 -0.3
v 0.1 0.4 -0.3
v -0.1 0.5 0
v 0 0.5 0
v 0.1 0.5 0
v 0.2 0.5 0
v -0.1 0.5 -0.1
v 0 0.5 -0.1
v 0.1 0.5 -0.1
v 0.2 0.5 -0.1
v 0 0.5 -0.2
v 0.1 0.5 -0.2

# faces
f 3/1/1 2/1/1 1/1/1
f 4/1/1 2/1/1 3/1/1
f 9/3/1 6/3/1 5/3/1
f 11/3/1 8/3/1 7/3/1
f 12/3/1 8/3/1 11/3/1
f 13/3/1 10/3/1 9/3/1
f 13/3/1 9/3/1 5/3/1
f 14/3/1 10/3/1 13/3/1
f 15/3/1 11/3/1 7/3/1
f 16/3/1 11/3/1 15/3/1
f 17/3/1 15/3/1 14/3/1
f 18/3/1 15/3/1 17/3/1
f 21/3/1 20/3/1 19/3/1
f 23/3/1 20/3/1 21/3/1
f 24/3/1 20/3/1 23/3/1
f 26/2/1 23/2/1 22/2/1
f 27/2/1 23/2/1 26/2/1
f 28/3/1 26/3/1 25/3/1
f 29/3/1 26/3/1 28/3/1
f 35/3/1 31/3/1 30/3/1
f 36/3/1 31/3/1 35/3/1
f 37/3/1 34/3/1 33/3/1
f 37/3/1 33/3/1 32/3/1
f 38/3/1 34/3/1 37/3/1
f 39/3/1 35/3/1 30/3/1
f 40/3/1 35/3/1 39/3/1
f 41/3/1 39/3/1 38/3/1
f 42/3/1 39/3/1 41/3/1
f 43/3/2 44/3/2 48/3/2
f 48/3/2 44/3/2 49/3/2
f 46/3/2 47/3/2 50/3/2
f 45/3/2 46/3/2 50/3/2
f 50/3/2 47/3/2 51/3/2
f 43/3/2 48/3/2 52/3/2
f 52/3/2 48/3/2 53/3/2
f 51/3/2 52/3/2 54/3/2
f 54/3/2 52/3/2 55/3/2
f 56/3/2 57/3/2 58/3/2
f 58/3/2 57/3/2 60/3/2
f 60/3/2 57/3/2 61/3/2
f 59/2/2 60/2/2 63/2/2
f 63/2/2 60/2/2 64/2/2
f 62/3/2 63/3/2 65/3/2
f 65/3/2 63/3/2 66/3/2
f 67/1/2 68/1/2 69/1/2
f 69/1/2 68/1/2 70/1/2
f 71/3/2 72/3/2 75/3/2
f 73/3/2 74/3/2 77/3/2
f 77/3/2 74/3/2 78/3/2
f 75/3/2 76/3/2 79/3/2
f 71/3/2 75/3/2 79/3/2
f 79/3/2 76/3/2 80/3/2
f 73/3/2 77/3/2 81/3/2
f 81/3/2 77/3/2 82/3/2
f 80/3/2 81/3/2 83/3/2
f 83/3/2 81/3/2 84/3/2
f 89/3/3 88/3/3 87/3/3
f 90/3/3 88/3/3 89/3/3
f 91/3/3 89/3/3 87/3/3
f 93/1/3 86/1/3 85/1/3
f 94/1/3 86/1/3 93/1/3
f 95/3/3 92/3/3 91/3/3
f 95/3/3 91/3/3 87/3/3
f 96/3/3 92/3/3 95/3/3
f 99/3/3 98/3/3 97/3/3
f 100/3/3 98/3/3 99/3/3
f 103/3/3 102/3/3 101/3/3
f 104/3/3 102/3/3 103/3/3
f 107/3/3 106/3/3 105/3/3
f 108/3/3 106/3/3 107/3/3
f 111/3/3 109/3/3 108/3/3
f 112/3/3 109/3/3 111/3/3
f 113/3/3 111/3/3 110/3/3
f 114/3/3 111/3/3 113/3/3
f 117/2/3 116/2/3 115/2/3
f 118/2/3 116/2/3 117/2/3
f 122/3/3 120/3/3 119/3/3
f 122/3/3 121/3/3 120/3/3
f 123/3/3 121/3/3 122/3/3
f 124/3/3 121/3/3 123/3/3
f 127/3/4 128/3/4 129/3/4
f 127/3/4 129/3/4 130/3/4
f 125/1/4 126/1/4 131/1/4
f 131/1/4 126/1/4 132/1/4
f 127/3/4 130/3/4 133/3/4
f 133/3/4 130/3/4 134/3/4
f 135/3/4 136/3/4 137/3/4
f 137/3/4 136/3/4 138/3/4
f 139/3/4 140/3/4 141/3/4
f 141/3/4 140/3/4 142/3/4
f 143/3/4 144/3/4 145/3/4
f 145/3/4 144/3/4 146/3/4
f 147/3/4 148/3/4 149/3/4
f 149/3/4 148/3/4 150/3/4
f 151/3/4 152/3/4 153/3/4
f 153/3/4 152/3/4 154/3/4
f 154/3/4 155/3/4 157/3/4
f 157/3/4 155/3/4 158/3/4
f 156/3/4 157/3/4 159/3/4
f 159/3/4 157/3/4 160/3/4
f 161/3/4 162/3/4 163/3/4
f 163/3/4 162/3/4 164/3/4
f 164/2/4 165/2/4 167/2/4
f 167/2/4 165/2/4 168/2/4
f 166/3/4 167/3/4 169/3/4
f 169/3/4 167/3/4 170/3/4
f 171/3/4 172/3/4 173/3/4
f 173/3/4 172/3/4 174/3/4
f 177/1/5 176/1/5 175/1/5
f 178/1/5 176/1/5 177/1/5
f 181/3/5 180/3/5 179/3/5
f 182/3/5 180/3/5 181/3/5
f 185/3/5 184/3/5 183/3/5
f 186/3/5 184/3/5 185/3/5
f 191/3/5 188/3/5 187/3/5
f 192/3/5 188/3/5 191/3/5
f 193/3/5 190/3/5 189/3/5
f 194/3/5 190/3/5 193/3/5
f 199/3/5 196/3/5 195/3/5
f 200/3/5 196/3/5 199/3/5
f 201/3/5 198/3/5 197/3/5
f 202/3/5 198/3/5 201/3/5
f 205/2/5 204/2/5 203/2/5
f 206/2/5 204/2/5 205/2/5
f 211/3/5 208/3/5 207/3/5
f 212/3/5 208/3/5 211/3/5
f 213/3/5 210/3/5 209/3/5
f 214/3/5 210/3/5 213/3/5
f 215/3/5 213/3/5 212/3/5
f 216/3/5 213/3/5 215/3/5
f 217/1/6 218/1/6 219/1/6
f 219/1/6 218/1/6 220/1/6
f 221/3/6 222/3/6 223/3/6
f 223/3/6 222/3/6 224/3/6
f 225/3/6 226/3/6 229/3/6
f 229/3/6 226/3/6 230/3/6
f 227/3/6 228/3/6 231/3/6
f 231/3/6 228/3/6 232/3/6
f 230/3/6 231/3/6 233/3/6
f 233/3/6 231/3/6 234/3/6
f 235/3/6 236/3/6 239/3/6
f 239/3/6 236/3/6 240/3/6
f 237/3/6 238/3/6 241/3/6
f 241/3/6 238/3/6 242/3/6
f 243/3/6 244/3/6 247/3/6
f 247/3/6 244/3/6 248/3/6
f 245/3/6 246/3/6 249/3/6
f 249/3/6 246/3/6 250/3/6
f 248/2/6 249/2/6 251/2/6
f 251/2/6 249/2/6 252/2/6
f 253/3/6 254/3/6 257/3/6
f 257/3/6 254/3/6 258/3/6
f 255/3/6 256/3/6 259/3/6
f 259/3/6 256/3/6 260/3/6
f 258/3/6 259/3/6 261/3/6
f 261/3/6 259/3/6 262/3/6
